<svg xmlns="http://www.w3.org/2000/svg" viewBox="0 0 256 256" role="img" aria-labelledby="t1 d1">
  <title id="t1">Boot USB</title>
  <desc id="d1">A glossy vertical USB drive with brushed-steel connector, gold pin contacts and an amber boot-mark stamp.</desc>
  <defs>
    <linearGradient id="b1" x1="74" y1="34" x2="184" y2="212" gradientUnits="userSpaceOnUse">
      <stop offset="0" stop-color="#5BC0FF"/><stop offset=".5" stop-color="#0F8FE5"/><stop offset="1" stop-color="#004B92"/>
    </linearGradient>
    <linearGradient id="g1" x1="128" y1="36" x2="128" y2="120" gradientUnits="userSpaceOnUse">
      <stop offset="0" stop-color="#FFFFFF" stop-opacity=".55"/><stop offset="1" stop-color="#FFFFFF" stop-opacity="0"/>
    </linearGradient>
    <linearGradient id="m1" x1="94" y1="212" x2="162" y2="244" gradientUnits="userSpaceOnUse">
      <stop offset="0" stop-color="#EAEEF2"/><stop offset=".5" stop-color="#A0A7B0"/><stop offset="1" stop-color="#5A6068"/>
    </linearGradient>
    <linearGradient id="bo1" x1="100" y1="60" x2="160" y2="184" gradientUnits="userSpaceOnUse">
      <stop offset="0" stop-color="#FFE066"/><stop offset="1" stop-color="#FF7A00"/>
    </linearGradient>
    <filter id="s1" x="-25%" y="-25%" width="150%" height="150%">
      <feGaussianBlur in="SourceAlpha" stdDeviation="3"/><feOffset dy="5"/>
      <feComponentTransfer><feFuncA type="linear" slope=".32"/></feComponentTransfer>
      <feMerge><feMergeNode/><feMergeNode in="SourceGraphic"/></feMerge>
    </filter>
  </defs>
  <g filter="url(#s1)">
    <rect x="74" y="34" width="108" height="182" rx="22" fill="url(#b1)"/>
    <rect x="84" y="44" width="88" height="62" rx="14" fill="url(#g1)"/>
    <rect x="94" y="216" width="68" height="28" rx="6" fill="url(#m1)"/>
    <rect x="106" y="222" width="14" height="16" rx="2" fill="#D7A02A"/>
    <rect x="136" y="222" width="14" height="16" rx="2" fill="#D7A02A"/>
    <path d="M150 64L96 138H126L106 188L160 110H132Z" fill="url(#bo1)" stroke="#A14C00" stroke-opacity=".25" stroke-width="2" stroke-linejoin="round"/>
    <rect x="74" y="34" width="108" height="182" rx="22" fill="none" stroke="#001E48" stroke-opacity=".25" stroke-width="2"/>
  </g>
</svg>